<svg width="14" height="11" viewBox="0 0 14 11" fill="none" xmlns="http://www.w3.org/2000/svg">
<path d="M1.52198 4.69279L8.88021 1.65478C9.60656 1.33832 12.0698 0.325651 12.0698 0.325651C12.0698 0.325651 13.2067 -0.117392 13.112 0.95857C13.0804 1.40161 12.8278 2.95226 12.5751 4.6295L11.7856 9.59791C11.7856 9.59791 11.7224 10.3258 11.1856 10.4524C10.6487 10.5789 9.76446 10.0093 9.60656 9.88273C9.48024 9.78779 7.23803 8.36372 6.41694 7.66751C6.19588 7.47764 5.94323 7.09788 6.44852 6.65484C7.58541 5.61052 8.94337 4.31304 9.76446 3.49025C10.1434 3.11049 10.5224 2.22441 8.94337 3.30037L4.49053 6.30674C4.49053 6.30674 3.98525 6.62319 3.03784 6.33838C2.09042 6.05357 0.985109 5.67382 0.985109 5.67382C0.985109 5.67382 0.22718 5.19913 1.52198 4.69279Z" fill="white"/>
</svg>
