<svg width="18" height="18" viewBox="0 0 18 18" fill="none" xmlns="http://www.w3.org/2000/svg">
<path d="M5.40094 15.0094L5.65795 15.1611C6.7379 15.7992 7.97605 16.1366 9.23868 16.1373H9.24143C13.1191 16.1373 16.275 12.9961 16.2765 9.13548C16.2771 7.26446 15.5461 5.50536 14.2178 4.18181C12.8895 2.85849 11.1234 2.12921 9.24394 2.12844C5.36336 2.12844 2.20741 5.26912 2.20595 9.12975C2.20544 10.4527 2.57717 11.7412 3.28151 12.8558L3.44892 13.1208L2.73804 15.7045L5.40094 15.0094ZM0.705933 17.7059L1.90673 13.3407C1.16606 12.0632 0.77642 10.614 0.77703 9.12936C0.778836 4.48465 4.57563 0.705872 9.2416 0.705872C11.5057 0.706843 13.6309 1.5841 15.229 3.17639C16.8269 4.76867 17.7067 6.88522 17.7059 9.13616C17.704 13.7806 13.9064 17.5601 9.2416 17.5601C9.24126 17.5601 9.24178 17.5601 9.2416 17.5601H9.23799C7.82141 17.5596 6.42948 17.2059 5.1932 16.5346L0.705933 17.7059Z" fill="white"/>
<path fill-rule="evenodd" clip-rule="evenodd" d="M7.7797 6.30192C7.65066 6.01474 7.51489 6.00899 7.39216 6.00394C7.29172 5.99966 7.17684 5.99994 7.0621 5.99994C6.94722 5.99994 6.76063 6.0431 6.60286 6.21566C6.44494 6.38823 6 6.80537 6 7.65374C6 8.5022 6.61724 9.322 6.70323 9.43717C6.78938 9.55212 7.89474 11.3488 9.6452 12.04C11.1001 12.6144 11.3962 12.5001 11.7119 12.4713C12.0277 12.4426 12.7309 12.0543 12.8744 11.6517C13.018 11.2491 13.018 10.9039 12.9749 10.8319C12.9319 10.76 12.817 10.7168 12.6448 10.6307C12.4725 10.5444 11.6258 10.1272 11.4679 10.0697C11.31 10.0122 11.1952 9.98348 11.0803 10.1561C10.9655 10.3285 10.6357 10.7168 10.5352 10.8319C10.4347 10.9471 10.3342 10.9615 10.162 10.8752C9.98969 10.7887 9.43498 10.6068 8.77695 10.0194C8.26493 9.56236 7.9193 8.99791 7.81878 8.82526C7.71834 8.65284 7.80806 8.55943 7.89441 8.47346C7.97179 8.39619 8.0667 8.27212 8.15284 8.17148C8.23877 8.07078 8.26744 7.99892 8.32485 7.88389C8.38233 7.7688 8.35359 7.66809 8.31055 7.58184C8.26744 7.49559 7.93275 6.64285 7.7796 6.30186" fill="white"/>
</svg>
